<svg width="590" height="570" viewBox="0 0 590 570" fill="none" xmlns="http://www.w3.org/2000/svg">
<path d="M565.878 373.414C548.932 397.692 525.162 416.373 506.362 439.333C478.759 472.994 460.9 516.697 423.526 539.151C405.849 549.754 385.393 554.495 365.344 559.095C333.122 566.501 299.734 573.906 267.259 567.651C242.366 562.868 219.776 550.329 197.649 537.959L180.141 528.141C176.28 525.953 172.376 523.808 168.473 521.62L157.101 515.252C123.713 496.458 90.5367 476.851 62.4004 450.946C31.0489 422.194 6.12769 384.354 0.946899 342.095C-5.06226 293.259 17.9354 241.968 58.399 213.904C80.5964 198.476 107.062 189.892 128.866 173.889C163.278 148.644 182.219 108.265 205.848 72.7947C249.639 7.02987 333.852 -24.443 404.768 22.3035C432.329 40.4523 453.178 67.409 468.496 96.6378C481.441 121.28 490.96 148.013 508.173 169.892C527.83 194.885 556.443 212.193 573.642 238.939C599.406 278.967 593.172 334.339 565.878 373.414Z" fill="#1337FF"/>
</svg>
