<svg width="25" height="24" viewBox="0 0 25 24" fill="none" xmlns="http://www.w3.org/2000/svg">
<g clip-path="url(#clip0)">
<path d="M24.2581 7.59813C24.2141 7.33413 24.1781 7.12813 23.8981 6.95713C12.4491 0.166134 12.6111 -0.339866 11.8681 0.109134C3.19107 5.50313 0.776068 6.70613 0.429068 7.12613C0.114068 7.44913 0.258068 7.94413 0.258068 15.4241C0.237068 16.2751 8.00107 20.8861 11.7771 23.8281C12.1101 24.0651 12.5291 24.0271 12.7801 23.7991C24.0041 15.8431 24.2771 16.1631 24.2581 15.4241C24.2581 15.4241 24.2461 7.49713 24.2581 7.59813ZM22.7581 14.0891L18.8821 11.7301L22.7581 9.03313V14.0891ZM17.4811 10.8771L13.0081 8.15513V2.08513L22.1341 7.64013L17.4811 10.8771ZM12.2581 14.5101L8.38207 11.8131L12.2581 9.45413L16.1341 11.8131L12.2581 14.5101ZM11.5081 2.08413V8.15813C9.76907 9.23713 8.29907 10.1381 7.05707 10.8921L2.38207 7.64013L11.5081 2.08413ZM5.65107 11.7421C3.77707 12.8691 2.55307 13.5851 1.75807 14.0621V9.03313L5.65107 11.7421ZM6.98107 12.6661L11.5081 15.8151V21.8141L2.38207 15.4651L6.98107 12.6661ZM13.0081 21.8151V15.8161L17.5351 12.6671L22.1341 15.4661L13.0081 21.8151Z" fill="#1337ff"/>
</g>
<defs>
<clipPath id="clip0">
<rect width="24" height="24" fill="white" transform="translate(0.258057)"/>
</clipPath>
</defs>
</svg>
