<svg width="535" height="517" viewBox="0 0 535 517" fill="none" xmlns="http://www.w3.org/2000/svg">
<g clip-path="url(#clip0)">
<path opacity="0.24" d="M513.14 338.692C497.773 360.712 476.219 377.656 459.172 398.48C434.142 429.01 417.947 468.648 384.056 489.014C368.027 498.631 349.478 502.931 331.297 507.103C302.078 513.82 271.803 520.536 242.355 514.863C219.783 510.525 199.298 499.153 179.233 487.933L163.357 479.028C159.856 477.044 156.316 475.098 152.777 473.113L142.465 467.338C112.189 450.292 82.1049 432.508 56.5911 409.013C28.1618 382.935 5.56355 348.614 0.865658 310.286C-4.58339 265.992 16.2707 219.472 52.9627 194.018C73.091 180.025 97.0898 172.24 116.862 157.725C148.066 134.828 165.241 98.2047 186.668 66.0338C226.377 6.38578 302.741 -22.1598 367.047 20.2388C392.039 36.6995 410.945 61.149 424.835 87.6592C436.573 110.01 445.205 134.256 460.814 154.1C478.638 176.769 504.585 192.466 520.181 216.725C543.543 253.03 537.89 303.252 513.14 338.692Z" fill="#68E1FD"/>
<path opacity="0.42" d="M183.307 474.423C181.436 476.471 184.504 479.321 187.127 480.313C204.239 486.856 222.404 490.218 240.726 490.235L237.607 495.54C266.325 503.508 296.653 503.666 325.453 495.998L321.023 489.129L346.753 487.857C350.84 487.666 365.176 489.345 367.887 485.719C375.692 475.276 343.927 474.869 340.515 474.729C306.624 473.312 272.711 472.765 238.778 473.088C229.526 473.172 220.275 473.321 211.023 473.533C206.644 473.686 186.032 471.523 183.307 474.423Z" fill="#68E1FD"/>
<path d="M327.962 380.302C327.274 393.871 326.455 407.465 325.504 421.085C325.222 427.969 324.327 434.814 322.831 441.54C321.827 445.539 320.41 449.422 318.604 453.129C317.827 454.719 316.72 456.449 314.976 456.627C312.773 456.856 311.245 454.503 310.456 452.429C306.522 442.252 306.522 431.109 306.267 420.22C306.123 414.589 305.898 408.953 305.592 403.314C305.223 396.508 304.485 389.143 299.876 384.105C298.476 382.579 296.77 381.332 295.395 379.768C289.78 373.407 291.461 362.684 297.508 356.692C302.206 352.049 315.841 345.918 322.423 349.759C330.24 354.313 328.331 372.962 327.962 380.302Z" fill="#606161"/>
<path d="M288.545 357.01C290.513 360.127 291.437 363.79 291.18 367.467C290.862 378.521 284.293 388.303 280.995 398.874C276.056 414.839 278.806 431.949 279.302 448.702C279.532 451.009 279.245 453.338 278.462 455.52C278.046 456.602 277.31 457.532 276.353 458.186C275.396 458.841 274.262 459.189 273.102 459.184C271.422 458.872 269.909 457.969 268.837 456.64C260.74 447.99 261.007 434.798 259.67 423.044C258.168 409.954 254.107 397.31 250.644 384.602C249.078 378.865 247.614 372.987 247.983 367.06C248.352 361.132 250.847 355.038 255.749 351.68C264.648 345.6 282.192 347.915 288.545 357.01Z" fill="#606161"/>
<path opacity="0.52" d="M77.7126 237.816L216.816 237.816C225.352 237.816 232.272 230.902 232.272 222.373L232.272 65.9575C232.272 57.4285 225.352 50.5144 216.816 50.5144L77.7126 50.5144C69.1766 50.5144 62.2567 57.4285 62.2567 65.9575L62.2567 222.373C62.2567 230.902 69.1766 237.816 77.7126 237.816Z" fill="#68E1FD"/>
<path opacity="0.2" d="M77.7126 237.816L216.816 237.816C225.352 237.816 232.272 230.902 232.272 222.373L232.272 65.9575C232.272 57.4285 225.352 50.5144 216.816 50.5144L77.7126 50.5144C69.1766 50.5144 62.2567 57.4285 62.2567 65.9575L62.2567 222.373C62.2567 230.902 69.1766 237.816 77.7126 237.816Z" fill="url(#paint0_linear)"/>
<path opacity="0.52" d="M345.136 201.689L504.636 201.689C512.764 201.689 519.353 195.105 519.353 186.983V100.622C519.353 92.5003 512.764 85.9165 504.636 85.9165L345.136 85.9165C337.008 85.9165 330.419 92.5003 330.419 100.622V186.983C330.419 195.105 337.008 201.689 345.136 201.689Z" fill="#68E1FD"/>
<path d="M345.136 201.689L504.636 201.689C512.764 201.689 519.353 195.105 519.353 186.983V100.622C519.353 92.5003 512.764 85.9165 504.636 85.9165L345.136 85.9165C337.008 85.9165 330.419 92.5003 330.419 100.622V186.983C330.419 195.105 337.008 201.689 345.136 201.689Z" fill="url(#paint1_linear)"/>
<path opacity="0.52" d="M296.362 117.121L396.571 117.121C401.676 117.121 405.814 112.986 405.814 107.885V53.6183C405.814 48.5178 401.676 44.383 396.571 44.383L296.362 44.383C291.257 44.383 287.119 48.5178 287.119 53.6183V107.885C287.119 112.986 291.257 117.121 296.362 117.121Z" fill="#68E1FD"/>
<path d="M296.362 117.121L396.571 117.121C401.676 117.121 405.814 112.986 405.814 107.885V53.6183C405.814 48.5178 401.676 44.383 396.571 44.383L296.362 44.383C291.257 44.383 287.119 48.5178 287.119 53.6183V107.885C287.119 112.986 291.257 117.121 296.362 117.121Z" fill="url(#paint2_linear)"/>
<path opacity="0.52" d="M136.825 338.603L424.16 338.603V324.839L136.825 324.839V338.603Z" fill="#68E1FD"/>
<path d="M192.907 307.132H380.861C389.692 307.132 396.851 299.978 396.851 291.154V160.88C396.851 152.056 389.692 144.903 380.861 144.903L192.907 144.903C184.075 144.903 176.916 152.056 176.916 160.88L176.916 291.154C176.916 299.978 184.075 307.132 192.907 307.132Z" fill="#313B72"/>
<path d="M247.817 170.306H203.957V173.525H247.817V170.306Z" fill="#EFD42B"/>
<path d="M230.732 176.527H203.957V179.542H230.732V176.527Z" fill="url(#paint3_linear)"/>
<path d="M325.772 176.527H241.528V179.567H325.772V176.527Z" fill="url(#paint4_linear)"/>
<path d="M381.064 176.527H333.652V179.567H381.064V176.527Z" fill="url(#paint5_linear)"/>
<path d="M254.692 182.773H217.886V185.953H254.692V182.773Z" fill="url(#paint6_linear)"/>
<path d="M273.56 188.981H229.7V192.199H273.56V188.981Z" fill="url(#paint7_linear)"/>
<path d="M313.193 188.981H276.425V192.555H313.193V188.981Z" fill="url(#paint8_linear)"/>
<path d="M263.502 195.201H229.637V198.216H263.502V195.201Z" fill="url(#paint9_linear)"/>
<path d="M336.644 195.201H266.749V198.547H336.644V195.201Z" fill="url(#paint10_linear)"/>
<path d="M247.817 203.622H203.957V206.841H247.817V203.622Z" fill="#EFD42B"/>
<path d="M230.732 209.843H203.957V212.858H230.732V209.843Z" fill="url(#paint11_linear)"/>
<path d="M325.772 209.843H241.528V212.883H325.772V209.843Z" fill="url(#paint12_linear)"/>
<path d="M381.064 209.843H333.652V212.883H381.064V209.843Z" fill="url(#paint13_linear)"/>
<path d="M254.692 216.063H217.886V219.244H254.692V216.063Z" fill="url(#paint14_linear)"/>
<path d="M273.56 222.297H229.7V225.515H273.56V222.297Z" fill="url(#paint15_linear)"/>
<path d="M313.193 222.297H276.425V225.871H313.193V222.297Z" fill="url(#paint16_linear)"/>
<path d="M263.502 228.517H229.637V231.532H263.502V228.517Z" fill="url(#paint17_linear)"/>
<path d="M336.644 228.517H266.749V231.863H336.644V228.517Z" fill="url(#paint18_linear)"/>
<path d="M247.817 236.925H203.957V240.144H247.817V236.925Z" fill="#EFD42B"/>
<path d="M230.732 243.146H203.957V246.161H230.732V243.146Z" fill="url(#paint19_linear)"/>
<path d="M325.772 243.146H241.528V246.186H325.772V243.146Z" fill="url(#paint20_linear)"/>
<path d="M381.064 243.146H333.652V246.186H381.064V243.146Z" fill="url(#paint21_linear)"/>
<path d="M254.692 249.366H217.886V252.547H254.692V249.366Z" fill="url(#paint22_linear)"/>
<path d="M273.56 255.587H229.7V258.805H273.56V255.587Z" fill="url(#paint23_linear)"/>
<path d="M313.193 255.587H276.425V259.161H313.193V255.587Z" fill="url(#paint24_linear)"/>
<path d="M263.502 261.82H229.637V264.835H263.502V261.82Z" fill="url(#paint25_linear)"/>
<path d="M336.644 261.82H266.749V265.166H336.644V261.82Z" fill="url(#paint26_linear)"/>
<g opacity="0.52">
<path opacity="0.52" d="M324.002 54.3307H302.18V55.9335H324.002V54.3307Z" fill="#68E1FD"/>
<path opacity="0.52" d="M315.497 57.4345H302.18V58.9356H315.497V57.4345Z" fill="#68E1FD"/>
<path opacity="0.52" d="M362.782 57.4345H320.87V58.9483H362.782V57.4345Z" fill="#68E1FD"/>
<path opacity="0.52" d="M390.282 57.4345H366.691V58.9483H390.282V57.4345Z" fill="#68E1FD"/>
<path opacity="0.52" d="M327.414 60.5257H309.106V62.1031H327.414V60.5257Z" fill="#68E1FD"/>
<path opacity="0.52" d="M336.81 63.6296H314.988V65.2324H336.81V63.6296Z" fill="#68E1FD"/>
<path opacity="0.52" d="M356.505 63.6296H338.223V65.4105H356.505V63.6296Z" fill="#68E1FD"/>
<path opacity="0.52" d="M331.794 66.7207H314.95V68.2218H331.794V66.7207Z" fill="#68E1FD"/>
<path opacity="0.52" d="M368.193 66.7207H333.423V68.3872H368.193V66.7207Z" fill="#68E1FD"/>
<path opacity="0.52" d="M324.002 70.9059H302.18V72.5087H324.002V70.9059Z" fill="#68E1FD"/>
<path opacity="0.52" d="M315.497 73.9971H302.18V75.4981H315.497V73.9971Z" fill="#68E1FD"/>
<path opacity="0.52" d="M362.782 73.9971H320.87V75.5108H362.782V73.9971Z" fill="#68E1FD"/>
<path opacity="0.52" d="M390.282 73.9971H366.691V75.5108H390.282V73.9971Z" fill="#68E1FD"/>
<path opacity="0.52" d="M327.414 77.0882H309.106V78.6656H327.414V77.0882Z" fill="#68E1FD"/>
<path opacity="0.52" d="M336.81 80.1921H314.988V81.7949H336.81V80.1921Z" fill="#68E1FD"/>
<path opacity="0.52" d="M356.505 80.1921H338.223V81.973H356.505V80.1921Z" fill="#68E1FD"/>
<path opacity="0.52" d="M331.794 83.2833H314.95V84.7843H331.794V83.2833Z" fill="#68E1FD"/>
<path opacity="0.52" d="M368.193 83.2833H333.423V84.9497H368.193V83.2833Z" fill="#68E1FD"/>
<path opacity="0.52" d="M324.002 87.4684H302.18V89.0713H324.002V87.4684Z" fill="#68E1FD"/>
<path opacity="0.52" d="M315.497 90.5723H302.18V92.0734H315.497V90.5723Z" fill="#68E1FD"/>
<path opacity="0.52" d="M362.782 90.5723H320.87V92.0861H362.782V90.5723Z" fill="#68E1FD"/>
<path opacity="0.52" d="M390.282 90.5723H366.691V92.0861H390.282V90.5723Z" fill="#68E1FD"/>
<path opacity="0.52" d="M327.414 93.6635H309.106V95.2409H327.414V93.6635Z" fill="#68E1FD"/>
<path opacity="0.52" d="M336.81 96.7546H314.988V98.3575H336.81V96.7546Z" fill="#68E1FD"/>
<path opacity="0.52" d="M356.505 96.7546H338.223V98.5355H356.505V96.7546Z" fill="#68E1FD"/>
<path opacity="0.52" d="M331.794 99.8585H314.95V101.36H331.794V99.8585Z" fill="#68E1FD"/>
<path opacity="0.52" d="M368.193 99.8585H333.423V101.525H368.193V99.8585Z" fill="#68E1FD"/>
</g>
<path d="M339.815 315.922C340.718 318.466 341.571 321.137 341.011 323.758C340.809 324.665 340.442 325.527 339.929 326.302C337.383 330.245 331.348 330.856 327.198 328.49C323.047 326.124 320.705 321.595 319.559 317.041C319.107 315.516 318.956 313.917 319.113 312.335C319.482 309.574 321.316 307.246 323.225 305.211C325.772 302.565 330.444 299.105 333.869 302.285C336.95 305.135 338.452 312.118 339.815 315.922Z" fill="url(#paint27_linear)"/>
<path d="M235.684 315.159C235.127 316.21 234.867 317.393 234.933 318.58C235.088 319.344 235.39 320.07 235.824 320.718C236.895 322.638 238.326 324.336 240.038 325.717C241.766 327.1 243.954 327.778 246.162 327.612C249.421 327.256 252.006 324.674 253.737 321.888C255.537 319.241 256.483 316.107 256.449 312.907C256.349 311.221 255.878 309.578 255.068 308.096C254.258 306.613 253.129 305.329 251.764 304.333C249.307 302.552 244.189 300.937 241.413 302.972C238.638 305.007 237.072 311.877 235.684 315.159Z" fill="url(#paint28_linear)"/>
<path d="M310.876 221.724C311.328 221.593 311.804 221.568 312.267 221.649C312.731 221.731 313.169 221.917 313.55 222.195C314.081 222.799 314.39 223.566 314.428 224.37C314.753 225.99 314.817 227.652 314.619 229.293C314.406 230.924 313.605 232.421 312.366 233.504C311.401 234.213 310.313 234.74 309.157 235.055C308.289 235.449 307.302 235.485 306.407 235.157C306.017 234.892 305.691 234.543 305.454 234.136C305.216 233.729 305.072 233.274 305.032 232.804C304.026 227.881 305.567 222.691 310.876 221.724Z" fill="url(#paint29_linear)"/>
<path d="M264.521 220.019C264.015 219.892 263.486 219.892 262.98 220.019C262.428 220.279 261.962 220.692 261.637 221.208C261.312 221.724 261.142 222.323 261.147 222.933C261.065 224.129 261.142 225.331 261.376 226.507C261.596 228.476 262.403 230.333 263.693 231.837C264.343 232.561 265.217 233.045 266.176 233.211C267.135 233.377 268.121 233.216 268.977 232.753C274.388 229.013 269.295 221.063 264.521 220.019Z" fill="url(#paint30_linear)"/>
<path d="M298.794 255.574C299.045 256.727 299.114 257.911 298.998 259.085C298.526 262.342 295.28 264.619 292.021 265.026C288.761 265.433 285.502 264.339 282.459 263.13C281.525 262.816 280.66 262.323 279.913 261.68C279.167 260.901 278.659 259.926 278.449 258.869C278.084 257.036 277.973 255.161 278.118 253.297L278.322 246.733C278.259 245.449 278.513 244.169 279.06 243.006C280.333 240.831 283.249 240.462 285.782 240.296C289.105 240.157 294.109 240.296 296.298 243.324C298.488 246.352 298.234 252.051 298.794 255.574Z" fill="url(#paint31_linear)"/>
<path d="M309.03 201.994C310.019 204.763 310.368 207.721 310.048 210.644C309.765 217.394 309.059 224.12 307.935 230.781C307.095 235.781 305.771 241.149 301.811 244.304C300.679 245.064 299.611 245.915 298.616 246.848C297.928 247.586 297.444 248.501 296.808 249.303C293.587 253.335 287.094 253.335 282.663 250.651C278.233 247.967 275.393 243.362 272.796 238.884C269.932 233.949 267.093 228.784 266.583 223.098C266.163 218.595 267.22 213.85 265.501 209.665C264.228 206.586 261.593 204.118 261.007 200.849C260.781 198.647 261.05 196.421 261.796 194.336C262.828 190.634 264.406 186.36 268.162 185.355C270.899 184.617 273.726 186.017 276.565 186.106C280.18 186.233 283.86 184.21 287.297 185.355C291.715 186.831 293.663 191.919 298.068 193.573C302.473 195.227 306.98 197.313 309.03 201.994Z" fill="#606161"/>
<path d="M323.646 267.188C310.736 256.49 292.11 256.757 275.495 259.022C268.633 259.95 261.644 261.184 255.609 264.593C245.5 270.318 239.516 281.385 236.372 292.579C234.704 298.52 233.825 305.3 237.161 310.515C240.662 315.909 247.639 317.766 254.03 318.479C255.009 318.501 255.966 318.777 256.806 319.28C257.686 320.095 258.238 321.204 258.359 322.397C260.141 331.683 256.525 342.114 261.3 350.268C265.921 358.142 276.246 360.216 285.349 360.915C297.126 361.819 309.896 361.488 319.457 354.555C321.043 353.49 322.391 352.108 323.416 350.497C324.995 347.8 325.084 344.518 325.122 341.402C325.224 334.609 322.742 320.947 326.052 314.955C328.827 309.968 336.733 309.943 339.509 304.244C344.767 293.406 331.552 273.727 323.646 267.188Z" fill="white"/>
<path opacity="0.5" d="M276.921 353.754L277.01 368.217C277.073 368.774 276.967 369.337 276.705 369.833C276.281 370.355 275.668 370.689 274.999 370.761C271.078 371.677 266.978 371.156 262.955 371.168C258.932 371.181 254.59 371.893 251.7 374.705C256.093 377.949 261.758 378.839 267.194 379.475C275.241 380.433 283.304 381.069 291.384 381.383C296.622 381.769 301.887 381.496 307.057 380.569C311.601 379.657 315.862 377.673 319.482 374.781C315.93 370.965 310.048 371.041 304.854 371.041C299.8 371.039 294.75 370.751 289.729 370.176C289.162 370.184 288.599 370.075 288.075 369.856C287.552 369.637 287.079 369.313 286.686 368.904C286.263 368.15 286.094 367.281 286.202 366.423C286.299 363.212 286.704 360.017 287.412 356.883C287.563 355.849 287.979 354.871 288.621 354.046C289.756 353.078 291.18 352.514 292.67 352.443C298.565 351.462 304.345 349.885 309.921 347.737C312.218 346.976 314.354 345.799 316.223 344.264C321.239 339.71 321.023 331.861 319.864 325.183C310.633 330.537 300.208 333.502 289.538 333.807C282.243 334.011 266.418 330.882 261.287 337.903C258.741 341.453 261.453 344.734 264.266 347.19C265.488 348.233 276.921 353.614 276.921 353.754Z" fill="url(#paint32_linear)"/>
<path d="M303.059 288.025H272.758C260.952 288.025 251.382 297.587 251.382 309.383V318.402C251.382 330.198 260.952 339.761 272.758 339.761H303.059C314.865 339.761 324.435 330.198 324.435 318.402V309.383C324.435 297.587 314.865 288.025 303.059 288.025Z" fill="#68E1FD"/>
<path d="M303.059 288.025H272.758C260.952 288.025 251.382 297.587 251.382 309.383V318.402C251.382 330.198 260.952 339.761 272.758 339.761H303.059C314.865 339.761 324.435 330.198 324.435 318.402V309.383C324.435 297.587 314.865 288.025 303.059 288.025Z" fill="url(#paint33_linear)"/>
<path d="M303.059 292.783H272.758C260.952 292.783 251.382 302.345 251.382 314.141V323.16C251.382 334.956 260.952 344.518 272.758 344.518H303.059C314.865 344.518 324.435 334.956 324.435 323.16V314.141C324.435 302.345 314.865 292.783 303.059 292.783Z" fill="#68E1FD"/>
<path d="M299.15 321.341C296.964 322.31 294.662 322.994 292.301 323.376C285.935 324.547 278.5 324.292 273.917 319.674C273.198 318.973 272.616 318.145 272.198 317.232C270.925 314.141 272.593 310.414 275.33 308.455C278.067 306.496 281.543 305.974 284.891 305.809C288.991 305.605 296.782 304.906 300.36 307.666C304.638 310.973 303.976 319.077 299.15 321.341Z" fill="url(#paint34_linear)"/>
<path d="M286.686 395.631H286.699C289.448 395.631 291.677 393.404 291.677 390.657V318.377C291.677 315.63 289.448 313.403 286.699 313.403H286.686C283.937 313.403 281.708 315.63 281.708 318.377V390.657C281.708 393.404 283.937 395.631 286.686 395.631Z" fill="white"/>
<path d="M317.356 452.925C319.902 455.024 320.539 458.662 321.659 461.83C323.213 466.155 326.09 470.086 326.472 474.665C326.639 476.023 326.413 477.4 325.823 478.634C325.253 479.589 324.443 480.377 323.474 480.922C322.505 481.467 321.409 481.748 320.297 481.738C318.069 481.692 315.897 481.031 314.021 479.83C310.702 477.855 307.963 475.043 306.076 471.676C305.114 470.028 304.498 468.201 304.268 466.307C303.746 460.57 309.705 446.819 317.356 452.925Z" fill="#68E1FD"/>
<path d="M322.105 477.196C322.284 477.531 322.378 477.905 322.378 478.284C322.378 478.664 322.284 479.037 322.105 479.372C321.811 479.687 321.422 479.897 320.997 479.97C319.243 480.309 317.426 479.977 315.905 479.041C314.404 478.121 313.026 477.014 311.805 475.746C309.915 474.089 308.243 472.2 306.827 470.124C305.409 468.014 304.832 465.45 305.21 462.936C306.56 456.042 312.646 462.224 314.886 464.768C318.085 468.398 320.537 472.621 322.105 477.196Z" fill="#606161"/>
<path d="M267.513 453.065C264.966 455.164 264.33 458.802 263.21 461.97C261.656 466.295 258.779 470.238 258.397 474.805C258.231 476.167 258.456 477.548 259.046 478.787C259.617 479.739 260.428 480.525 261.397 481.067C262.366 481.61 263.461 481.889 264.572 481.878C266.801 481.838 268.975 481.177 270.848 479.97C274.17 477.999 276.91 475.186 278.793 471.816C279.757 470.169 280.373 468.342 280.601 466.447C281.11 460.71 275.152 446.908 267.513 453.065Z" fill="#68E1FD"/>
<path d="M262.115 477.693C261.938 478.028 261.846 478.401 261.846 478.78C261.846 479.159 261.938 479.532 262.115 479.868C262.414 480.183 262.807 480.393 263.235 480.466C264.989 480.791 266.802 480.461 268.328 479.537C269.821 478.612 271.194 477.506 272.414 476.242C274.311 474.584 275.989 472.69 277.405 470.607C278.82 468.501 279.397 465.942 279.022 463.433C277.66 456.525 271.587 462.707 269.333 465.264C266.138 468.897 263.686 473.119 262.115 477.693Z" fill="#606161"/>
<path d="M294.796 422.65C292.745 423.623 290.48 424.061 288.214 423.922C285.706 424.066 283.189 423.882 280.728 423.375C279.898 423.211 279.121 422.849 278.462 422.319C277.912 421.816 277.478 421.199 277.189 420.513C275.113 415.933 272.771 406.443 275.992 402.589C279.671 398.162 294.274 397.386 298.908 402.029C303.403 406.38 300.143 419.508 294.796 422.65Z" fill="#68E1FD"/>
<path d="M294.796 422.65C292.745 423.623 290.48 424.061 288.214 423.922C285.706 424.066 283.189 423.882 280.728 423.375C279.898 423.211 279.121 422.849 278.462 422.319C277.912 421.816 277.478 421.199 277.189 420.513C275.113 415.933 272.771 406.443 275.992 402.589C279.671 398.162 294.274 397.386 298.908 402.029C303.403 406.38 300.143 419.508 294.796 422.65Z" fill="url(#paint35_linear)"/>
<path d="M284.662 465.684H291.308V422.84H284.662V465.684Z" fill="white"/>
<path d="M314.263 469.246C315.739 470.454 317.178 471.968 319.075 472.197C320.45 472.35 321.825 471.765 323.225 471.765C325.069 471.894 326.806 472.674 328.127 473.965C329.375 474.952 330.312 476.277 330.826 477.782C331.857 481.293 328.725 485.134 325.071 485.49C321.418 485.847 317.904 483.353 316.3 480.071C315.954 479.172 315.501 478.318 314.95 477.527C314.422 476.96 313.807 476.479 313.129 476.102C307.723 472.752 301.76 470.395 295.522 469.144C294.44 468.928 293.116 468.826 292.428 469.678C292.095 470.166 291.914 470.742 291.906 471.332C291.624 473.866 291.509 476.416 291.562 478.965C291.529 479.455 291.621 479.945 291.83 480.389C292.16 480.847 292.565 481.247 293.027 481.572C293.762 482.354 294.225 483.353 294.344 484.42C294.463 485.486 294.233 486.563 293.689 487.488C292.537 489.311 290.772 490.664 288.711 491.304C286.266 492.207 283.185 492.36 281.365 490.49C280.722 489.767 280.292 488.88 280.124 487.928C279.955 486.976 280.054 485.995 280.41 485.096C281.143 483.3 282.499 481.828 284.229 480.949C284.831 480.721 285.353 480.324 285.731 479.804C285.942 479.325 286.021 478.798 285.961 478.278L285.782 472.604C285.836 472.171 285.786 471.732 285.635 471.323C285.485 470.913 285.238 470.546 284.917 470.251C284.408 469.986 283.825 469.901 283.261 470.009C273.904 470.731 264.943 474.087 257.417 479.69C258.792 480.758 258.55 483.073 257.315 484.295C255.955 485.415 254.207 485.955 252.451 485.796C250.522 485.816 248.63 485.262 247.015 484.206C246.207 483.678 245.548 482.952 245.102 482.096C244.656 481.241 244.438 480.285 244.469 479.321C244.599 478.344 244.98 477.418 245.576 476.633C246.172 475.848 246.962 475.231 247.868 474.843C249.689 474.081 251.693 473.865 253.635 474.22C254.635 474.432 255.658 474.513 256.678 474.462C257.823 474.224 258.912 473.771 259.887 473.126C268.704 468.151 278.484 465.115 288.571 464.221C297.024 463.471 307.426 463.649 314.263 469.246Z" fill="white"/>
<path d="M395.107 297.985H475.532C483.28 297.985 489.562 291.709 489.562 283.967V231.621C489.562 223.879 483.28 217.603 475.532 217.603H395.107C387.358 217.603 381.077 223.879 381.077 231.621V283.967C381.077 291.709 387.358 297.985 395.107 297.985Z" fill="#797DCF" fill-opacity="0.9"/>
<path d="M80.4499 304.638H178.011C185.513 304.638 191.595 298.562 191.595 291.065V272.493C191.595 264.997 185.513 258.92 178.011 258.92H80.4499C72.9474 258.92 66.8654 264.997 66.8654 272.493V291.065C66.8654 298.562 72.9474 304.638 80.4499 304.638Z" fill="#3D4989" fill-opacity="0.9"/>
<path d="M88.7889 103.039L120.528 86.7052V91.4373L93.7924 104.756V104.909L120.528 118.291V123.023L88.7889 106.69V103.039Z" fill="#68E1FD"/>
<path d="M124.921 125.822L144.018 76.2105H148.665L129.568 125.822H124.921Z" fill="#68E1FD"/>
<path d="M184.758 106.931L153.006 123.201V118.355L179.946 104.972V104.756L153.006 91.3737V86.7052L184.758 102.975V106.931Z" fill="#68E1FD"/>
<path d="M248.237 406.939H322.551C331.375 406.939 338.529 399.792 338.529 390.975V389.97C338.529 381.153 331.375 374.005 322.551 374.005H248.237C239.413 374.005 232.259 381.153 232.259 389.97V390.975C232.259 399.792 239.413 406.939 248.237 406.939Z" fill="#68E1FD"/>
<path d="M248.237 406.939H322.551C331.375 406.939 338.529 399.792 338.529 390.975V389.97C338.529 381.153 331.375 374.005 322.551 374.005H248.237C239.413 374.005 232.259 381.153 232.259 389.97V390.975C232.259 399.792 239.413 406.939 248.237 406.939Z" fill="url(#paint36_linear)"/>
<g opacity="0.52">
<path opacity="0.52" d="M422.149 238.401H393.121V240.525H422.149V238.401Z" fill="#68E1FD"/>
<path opacity="0.52" d="M410.843 242.51H393.121V244.507H410.843V242.51Z" fill="#68E1FD"/>
<path opacity="0.52" d="M473.736 242.51H417.985V244.52H473.736V242.51Z" fill="#68E1FD"/>
<path opacity="0.52" d="M426.706 246.644H402.339V248.756H426.706V246.644Z" fill="#68E1FD"/>
<path opacity="0.52" d="M439.183 250.753H410.156V252.877H439.183V250.753Z" fill="#68E1FD"/>
<path opacity="0.52" d="M465.397 250.753H441.068V253.119H465.397V250.753Z" fill="#68E1FD"/>
<path opacity="0.52" d="M432.525 254.875H410.105V256.872H432.525V254.875Z" fill="#68E1FD"/>
<path opacity="0.52" d="M480.93 254.875H434.676V257.088H480.93V254.875Z" fill="#68E1FD"/>
<path opacity="0.52" d="M422.149 260.446H393.121V262.571H422.149V260.446Z" fill="#68E1FD"/>
<path opacity="0.52" d="M410.843 264.555H393.121V266.552H410.843V264.555Z" fill="#68E1FD"/>
<path opacity="0.52" d="M473.736 264.555H417.985V266.565H473.736V264.555Z" fill="#68E1FD"/>
<path opacity="0.52" d="M426.706 268.677H402.339V270.788H426.706V268.677Z" fill="#68E1FD"/>
<path opacity="0.52" d="M439.183 272.798H410.156V274.923H439.183V272.798Z" fill="#68E1FD"/>
<path opacity="0.52" d="M465.397 272.798H441.068V275.164H465.397V272.798Z" fill="#68E1FD"/>
<path opacity="0.52" d="M432.525 276.92H410.105V278.917H432.525V276.92Z" fill="#68E1FD"/>
<path opacity="0.52" d="M480.93 276.92H434.676V279.133H480.93V276.92Z" fill="#68E1FD"/>
</g>
<g opacity="0.52">
<path opacity="0.52" d="M115.143 268.995H86.1154V271.119H115.143V268.995Z" fill="#68E1FD"/>
<path opacity="0.52" d="M103.838 273.116H86.1154V275.113H103.838V273.116Z" fill="#68E1FD"/>
<path opacity="0.52" d="M166.731 273.116H110.98V275.126H166.731V273.116Z" fill="#68E1FD"/>
<path opacity="0.52" d="M119.701 277.238H95.3329V279.349H119.701V277.238Z" fill="#68E1FD"/>
<path opacity="0.52" d="M132.178 281.359H103.15V283.484H132.178V281.359Z" fill="#68E1FD"/>
<path opacity="0.52" d="M158.404 281.359H134.075V283.725H158.404V281.359Z" fill="#68E1FD"/>
<path opacity="0.52" d="M125.532 285.468H103.112V287.465H125.532V285.468Z" fill="#68E1FD"/>
<path opacity="0.52" d="M173.924 285.468H127.671V287.682H173.924V285.468Z" fill="#68E1FD"/>
<path opacity="0.52" d="M115.143 291.04H86.1154V293.164H115.143V291.04Z" fill="#68E1FD"/>
<path opacity="0.52" d="M103.838 295.161H86.1154V297.159H103.838V295.161Z" fill="#68E1FD"/>
<path opacity="0.52" d="M166.731 295.161H110.98V297.171H166.731V295.161Z" fill="#68E1FD"/>
</g>
<path d="M143.127 416.098C138.913 407.779 133.756 399.142 134.749 389.868C135.348 384.258 138.187 379.17 140.962 374.247L153.465 352.1C157.284 357.061 163.573 360.076 166.094 365.8C170.143 374.997 162.275 385.174 162.695 395.211C162.975 402.932 168.106 409.967 167.787 417.688C167.584 423.298 158.697 441.68 151.504 440.98C147.697 440.611 145.52 420.805 143.127 416.098Z" fill="#68E1FD"/>
<path d="M143.127 416.098C138.913 407.779 133.756 399.142 134.749 389.868C135.348 384.258 138.187 379.17 140.962 374.247L153.465 352.1C157.284 357.061 163.573 360.076 166.094 365.8C170.143 374.997 162.275 385.174 162.695 395.211C162.975 402.932 168.106 409.967 167.787 417.688C167.584 423.298 158.697 441.68 151.504 440.98C147.697 440.611 145.52 420.805 143.127 416.098Z" fill="url(#paint37_linear)"/>
<path d="M186.172 412.549C189.011 412.549 192.537 413.122 193.352 415.857C194.014 418.248 191.914 420.449 189.915 421.924C182.951 427.013 174.23 430.918 170.818 438.843C165.152 451.997 149.11 443.563 157.411 432.177C160.849 427.471 163.777 421.149 168.055 417.218C172.969 412.676 179.844 412.473 186.172 412.549Z" fill="#68E1FD"/>
<path d="M186.172 412.549C189.011 412.549 192.537 413.122 193.352 415.857C194.014 418.248 191.914 420.449 189.915 421.924C182.951 427.013 174.23 430.918 170.818 438.843C165.152 451.997 149.11 443.563 157.411 432.177C160.849 427.471 163.777 421.149 168.055 417.218C172.969 412.676 179.844 412.473 186.172 412.549Z" fill="url(#paint38_linear)"/>
<path d="M144.578 418.63C141.382 414.992 136.634 413.198 132.101 411.519C129.95 410.73 127.187 410.081 125.736 411.811C125.257 412.486 125 413.293 125 414.12C125 414.947 125.257 415.754 125.736 416.429C126.734 417.751 127.953 418.891 129.339 419.8C132.127 421.841 134.413 424.491 136.023 427.547C137.639 430.842 138.072 434.594 139.511 437.978C140.95 441.362 143.954 444.555 147.621 444.402C149.058 444.258 150.419 443.691 151.534 442.775C152.649 441.858 153.467 440.631 153.885 439.25C155.311 434.862 153.414 432.89 151.058 429.786C148.448 426.339 147.494 421.924 144.578 418.63Z" fill="#68E1FD"/>
<path d="M144.578 418.63C141.382 414.992 136.634 413.198 132.101 411.519C129.95 410.73 127.187 410.081 125.736 411.811C125.257 412.486 125 413.293 125 414.12C125 414.947 125.257 415.754 125.736 416.429C126.734 417.751 127.953 418.891 129.339 419.8C132.127 421.841 134.413 424.491 136.023 427.547C137.639 430.842 138.072 434.594 139.511 437.978C140.95 441.362 143.954 444.555 147.621 444.402C149.058 444.258 150.419 443.691 151.534 442.775C152.649 441.858 153.467 440.631 153.885 439.25C155.311 434.862 153.414 432.89 151.058 429.786C148.448 426.339 147.494 421.924 144.578 418.63Z" fill="url(#paint39_linear)"/>
<path d="M172.218 438.958L167.927 479.066H163.382C159.881 477.082 156.342 475.136 152.803 473.151L142.49 467.376L138.836 438.958H172.218Z" fill="#68E1FD"/>
<path d="M172.218 438.958L167.927 479.066H163.382C159.881 477.082 156.342 475.136 152.803 473.151L142.49 467.376L138.836 438.958H172.218Z" fill="url(#paint40_linear)"/>
</g>
<defs>
<linearGradient id="paint0_linear" x1="149.62" y1="196.333" x2="140.672" y2="-1.81974" gradientUnits="userSpaceOnUse">
<stop stop-color="white" stop-opacity="0"/>
<stop offset="0.95" stop-color="white"/>
</linearGradient>
<linearGradient id="paint1_linear" x1="79832.1" y1="13448.3" x2="97577.6" y2="17810.6" gradientUnits="userSpaceOnUse">
<stop stop-color="white" stop-opacity="0"/>
<stop offset="0.95" stop-color="white"/>
</linearGradient>
<linearGradient id="paint2_linear" x1="42305.2" y1="-1319.44" x2="42383.7" y2="9136.86" gradientUnits="userSpaceOnUse">
<stop stop-color="white" stop-opacity="0"/>
<stop offset="0.95" stop-color="white"/>
</linearGradient>
<linearGradient id="paint3_linear" x1="7031.38" y1="1331.74" x2="7030.73" y2="1026.21" gradientUnits="userSpaceOnUse">
<stop stop-color="white" stop-opacity="0"/>
<stop offset="0.99" stop-color="white"/>
</linearGradient>
<linearGradient id="paint4_linear" x1="26110.3" y1="1338.58" x2="26110.1" y2="1030.43" gradientUnits="userSpaceOnUse">
<stop stop-color="white" stop-opacity="0"/>
<stop offset="0.99" stop-color="white"/>
</linearGradient>
<linearGradient id="paint5_linear" x1="17635.7" y1="1335.23" x2="17635.3" y2="1027.15" gradientUnits="userSpaceOnUse">
<stop stop-color="white" stop-opacity="0"/>
<stop offset="0.99" stop-color="white"/>
</linearGradient>
<linearGradient id="paint6_linear" x1="10154.6" y1="1400.48" x2="10154" y2="1078.18" gradientUnits="userSpaceOnUse">
<stop stop-color="white" stop-opacity="0"/>
<stop offset="0.99" stop-color="white"/>
</linearGradient>
<linearGradient id="paint7_linear" x1="12603" y1="1420.62" x2="12602.5" y2="1094.42" gradientUnits="userSpaceOnUse">
<stop stop-color="white" stop-opacity="0"/>
<stop offset="0.99" stop-color="white"/>
</linearGradient>
<linearGradient id="paint8_linear" x1="11895.2" y1="1554.63" x2="11894.6" y2="1192.34" gradientUnits="userSpaceOnUse">
<stop stop-color="white" stop-opacity="0"/>
<stop offset="0.99" stop-color="white"/>
</linearGradient>
<linearGradient id="paint9_linear" x1="9651.72" y1="1349.13" x2="9651.21" y2="1043.59" gradientUnits="userSpaceOnUse">
<stop stop-color="white" stop-opacity="0"/>
<stop offset="0.99" stop-color="white"/>
</linearGradient>
<linearGradient id="paint10_linear" x1="22738.2" y1="1473.01" x2="22737.9" y2="1133.95" gradientUnits="userSpaceOnUse">
<stop stop-color="white" stop-opacity="0"/>
<stop offset="0.99" stop-color="white"/>
</linearGradient>
<linearGradient id="paint11_linear" x1="7031.38" y1="1286.16" x2="7030.73" y2="980.595" gradientUnits="userSpaceOnUse">
<stop stop-color="white" stop-opacity="0"/>
<stop offset="0.99" stop-color="white"/>
</linearGradient>
<linearGradient id="paint12_linear" x1="26110.3" y1="1292.27" x2="26110.1" y2="984.121" gradientUnits="userSpaceOnUse">
<stop stop-color="white" stop-opacity="0"/>
<stop offset="0.99" stop-color="white"/>
</linearGradient>
<linearGradient id="paint13_linear" x1="17635.7" y1="1288.99" x2="17635.3" y2="980.839" gradientUnits="userSpaceOnUse">
<stop stop-color="white" stop-opacity="0"/>
<stop offset="0.99" stop-color="white"/>
</linearGradient>
<linearGradient id="paint14_linear" x1="10154.6" y1="1350.54" x2="10154" y2="1028.21" gradientUnits="userSpaceOnUse">
<stop stop-color="white" stop-opacity="0"/>
<stop offset="0.99" stop-color="white"/>
</linearGradient>
<linearGradient id="paint15_linear" x1="12603" y1="1369.64" x2="12602.5" y2="1043.44" gradientUnits="userSpaceOnUse">
<stop stop-color="white" stop-opacity="0"/>
<stop offset="0.99" stop-color="white"/>
</linearGradient>
<linearGradient id="paint16_linear" x1="11895.2" y1="1494.37" x2="11894.6" y2="1132.07" gradientUnits="userSpaceOnUse">
<stop stop-color="white" stop-opacity="0"/>
<stop offset="0.99" stop-color="white"/>
</linearGradient>
<linearGradient id="paint17_linear" x1="9651.72" y1="1303.52" x2="9651.21" y2="997.976" gradientUnits="userSpaceOnUse">
<stop stop-color="white" stop-opacity="0"/>
<stop offset="0.99" stop-color="white"/>
</linearGradient>
<linearGradient id="paint18_linear" x1="22738.2" y1="1418.78" x2="22737.9" y2="1079.69" gradientUnits="userSpaceOnUse">
<stop stop-color="white" stop-opacity="0"/>
<stop offset="0.99" stop-color="white"/>
</linearGradient>
<linearGradient id="paint19_linear" x1="7031.38" y1="1240.55" x2="7030.73" y2="934.977" gradientUnits="userSpaceOnUse">
<stop stop-color="white" stop-opacity="0"/>
<stop offset="0.99" stop-color="white"/>
</linearGradient>
<linearGradient id="paint20_linear" x1="26110.3" y1="1245.98" x2="26110.1" y2="937.864" gradientUnits="userSpaceOnUse">
<stop stop-color="white" stop-opacity="0"/>
<stop offset="0.99" stop-color="white"/>
</linearGradient>
<linearGradient id="paint21_linear" x1="17635.7" y1="1242.7" x2="17635.3" y2="934.552" gradientUnits="userSpaceOnUse">
<stop stop-color="white" stop-opacity="0"/>
<stop offset="0.99" stop-color="white"/>
</linearGradient>
<linearGradient id="paint22_linear" x1="10154.6" y1="1300.58" x2="10154" y2="978.253" gradientUnits="userSpaceOnUse">
<stop stop-color="white" stop-opacity="0"/>
<stop offset="0.99" stop-color="white"/>
</linearGradient>
<linearGradient id="paint23_linear" x1="12603" y1="1318.68" x2="12602.5" y2="992.478" gradientUnits="userSpaceOnUse">
<stop stop-color="white" stop-opacity="0"/>
<stop offset="0.99" stop-color="white"/>
</linearGradient>
<linearGradient id="paint24_linear" x1="11895.2" y1="1434.05" x2="11894.6" y2="1071.75" gradientUnits="userSpaceOnUse">
<stop stop-color="white" stop-opacity="0"/>
<stop offset="0.99" stop-color="white"/>
</linearGradient>
<linearGradient id="paint25_linear" x1="9651.72" y1="1257.89" x2="9651.21" y2="952.321" gradientUnits="userSpaceOnUse">
<stop stop-color="white" stop-opacity="0"/>
<stop offset="0.99" stop-color="white"/>
</linearGradient>
<linearGradient id="paint26_linear" x1="22738.2" y1="1364.46" x2="22737.9" y2="1025.36" gradientUnits="userSpaceOnUse">
<stop stop-color="white" stop-opacity="0"/>
<stop offset="0.99" stop-color="white"/>
</linearGradient>
<linearGradient id="paint27_linear" x1="319.088" y1="315.464" x2="341.19" y2="315.464" gradientUnits="userSpaceOnUse">
<stop stop-color="#E5C6D6"/>
<stop offset="0.42" stop-color="#EAD4D0"/>
<stop offset="1" stop-color="#F0E9CB"/>
</linearGradient>
<linearGradient id="paint28_linear" x1="5990.81" y1="6685.88" x2="6355.47" y2="6685.88" gradientUnits="userSpaceOnUse">
<stop stop-color="#E5C6D6"/>
<stop offset="0.42" stop-color="#EAD4D0"/>
<stop offset="1" stop-color="#F0E9CB"/>
</linearGradient>
<linearGradient id="paint29_linear" x1="3523.1" y1="2720.17" x2="3601.5" y2="2720.17" gradientUnits="userSpaceOnUse">
<stop stop-color="#EFE5CC"/>
<stop offset="0.42" stop-color="#EAD4D0"/>
<stop offset="1" stop-color="#F0E9CB"/>
</linearGradient>
<linearGradient id="paint30_linear" x1="3194.81" y1="2621.14" x2="3276.52" y2="2621.14" gradientUnits="userSpaceOnUse">
<stop stop-color="#EFE5CC"/>
<stop offset="0.42" stop-color="#EAD4D0"/>
<stop offset="1" stop-color="#F0E9CB"/>
</linearGradient>
<linearGradient id="paint31_linear" x1="6603.8" y1="5220.19" x2="6950.44" y2="5220.19" gradientUnits="userSpaceOnUse">
<stop stop-color="#EFE5CC"/>
<stop offset="0.42" stop-color="#EAD4D0"/>
<stop offset="1" stop-color="#F0E9CB"/>
</linearGradient>
<linearGradient id="paint32_linear" x1="251.7" y1="353.372" x2="320.603" y2="353.372" gradientUnits="userSpaceOnUse">
<stop stop-color="#010101" stop-opacity="0"/>
<stop offset="0.95" stop-color="#010101"/>
</linearGradient>
<linearGradient id="paint33_linear" x1="14675.7" y1="13053.8" x2="18867.5" y2="13053.8" gradientUnits="userSpaceOnUse">
<stop stop-color="#010101" stop-opacity="0"/>
<stop offset="0.95" stop-color="#010101"/>
</linearGradient>
<linearGradient id="paint34_linear" x1="9984.63" y1="4653.31" x2="9972.8" y2="5725.55" gradientUnits="userSpaceOnUse">
<stop stop-color="#010101" stop-opacity="0"/>
<stop offset="0.95" stop-color="#010101"/>
</linearGradient>
<linearGradient id="paint35_linear" x1="8466.14" y1="8757.96" x2="8539.01" y2="8094.85" gradientUnits="userSpaceOnUse">
<stop stop-color="#010101" stop-opacity="0"/>
<stop offset="0.95" stop-color="#010101"/>
</linearGradient>
<linearGradient id="paint36_linear" x1="32816.5" y1="9962.15" x2="32825.5" y2="11136.6" gradientUnits="userSpaceOnUse">
<stop stop-color="#010101" stop-opacity="0"/>
<stop offset="0.95" stop-color="#010101"/>
</linearGradient>
<linearGradient id="paint37_linear" x1="6825.34" y1="28981.4" x2="6894.42" y2="35526.5" gradientUnits="userSpaceOnUse">
<stop stop-color="#010101" stop-opacity="0"/>
<stop offset="0.95" stop-color="#010101"/>
</linearGradient>
<linearGradient id="paint38_linear" x1="8542.96" y1="11394.2" x2="8813.22" y2="12604.8" gradientUnits="userSpaceOnUse">
<stop stop-color="#010101" stop-opacity="0"/>
<stop offset="0.95" stop-color="#010101"/>
</linearGradient>
<linearGradient id="paint39_linear" x1="5848.18" y1="11560.2" x2="5262.93" y2="12798" gradientUnits="userSpaceOnUse">
<stop stop-color="#010101" stop-opacity="0"/>
<stop offset="0.95" stop-color="#010101"/>
</linearGradient>
<linearGradient id="paint40_linear" x1="7073.24" y1="14471.4" x2="6222.64" y2="16527.8" gradientUnits="userSpaceOnUse">
<stop stop-color="#010101" stop-opacity="0"/>
<stop offset="0.95" stop-color="#010101"/>
</linearGradient>
<clipPath id="clip0">
<rect width="535" height="517" fill="white"/>
</clipPath>
</defs>
</svg>
