<svg width="475" height="359" viewBox="0 0 475 359" fill="none" xmlns="http://www.w3.org/2000/svg">
<g clip-path="url(#clip0)">
<path opacity="0.18" d="M380.155 54.89C346.85 50.0548 312.559 53.3852 279.538 46.7491C244.999 39.8046 213.545 22.3264 180.253 10.7194C146.96 -0.887578 108.512 -6.10516 77.6245 10.9044C58.7148 21.3272 44.8008 38.9782 33.8842 57.653C12.3676 94.4806 0.705994 136.232 0.024353 178.879C-0.284027 200.02 2.17068 221.31 8.65894 241.44C30.3441 308.714 95.9791 355.277 165.191 369.635C241.2 385.411 323.845 366.181 385.225 318.68C437.489 278.161 489.173 205.916 471.447 140.111C459.692 96.347 430.088 62.1428 380.155 54.89Z" fill="#68E1FD"/>
<path d="M118.898 235.051L156.816 263.112C157.623 263.708 158.633 263.96 159.625 263.812C160.617 263.664 161.51 263.128 162.108 262.323L177.835 241.07C178.132 240.674 178.342 240.22 178.452 239.738C178.636 239.013 178.601 238.249 178.351 237.544C178.1 236.839 177.646 236.225 177.046 235.778L139.115 207.717C138.667 207.387 138.152 207.16 137.606 207.051C137.061 206.943 136.498 206.955 135.957 207.088C135.106 207.305 134.353 207.805 133.824 208.506L118.096 229.771C117.802 230.171 117.589 230.624 117.471 231.105C117.352 231.587 117.329 232.087 117.403 232.577C117.478 233.067 117.648 233.538 117.905 233.963C118.161 234.387 118.499 234.757 118.898 235.051Z" fill="#68E1FD"/>
<path d="M135.957 207.088L142.976 238.615L178.452 239.738C178.636 239.013 178.601 238.249 178.351 237.544C178.1 236.839 177.646 236.225 177.046 235.778L139.115 207.717C138.667 207.387 138.152 207.16 137.606 207.051C137.061 206.943 136.498 206.955 135.957 207.088Z" fill="url(#paint0_linear)"/>
<path d="M155.706 239.022L154.546 261.422L118.898 235.051L140.472 227.341L142.976 238.615L155.706 239.022Z" fill="url(#paint1_linear)"/>
<path d="M111.842 55.6541L154.201 116.008L162.342 93.423C190.456 100.89 218.133 109.912 245.246 120.448C276.504 132.894 306.601 148.362 315.248 164.348C335.071 201.068 288.506 217.301 288.506 217.301C297.365 218.009 306.273 217.794 315.088 216.659C338.315 213.612 367.154 202.363 358.803 164.348C352.204 134.313 309.241 109.051 267.03 91.0547H266.969C260.801 88.4398 254.633 85.9852 248.639 83.6539L248.466 83.5799C225.884 74.946 202.854 67.5344 179.476 61.3774L183.534 41.6172L111.842 55.6541Z" fill="#68E1FD"/>
<path d="M315.248 164.348C335.071 201.068 288.506 217.301 288.506 217.301C297.365 218.009 306.273 217.794 315.088 216.659C318.578 212.596 321.839 208.343 324.857 203.918C351.587 165.039 294.254 134.399 294.254 134.399C289.48 116.97 267.03 102.551 267.03 102.551V91.0549H266.969L248.639 83.6541L248.466 83.5801L244.432 117.279L245.246 120.424C276.504 132.894 306.601 148.362 315.248 164.348Z" fill="url(#paint2_linear)"/>
<path d="M185.261 291.148C186.39 293.068 187.089 295.211 187.308 297.427C187.271 299.645 186.551 301.798 185.249 303.594C182.571 307.565 178.468 310.353 173.789 311.377C173.177 311.565 172.519 311.535 171.927 311.291C171.521 311.042 171.206 310.671 171.026 310.23C169.904 307.948 170.36 305.235 171.1 302.829C171.84 300.424 172.852 297.982 172.741 295.429C172.556 290.655 165.734 281.441 173.678 279.196C180.302 277.272 183.152 286.893 185.261 291.148Z" fill="#EFE5CC"/>
<path d="M189.924 297.377C189.924 297.377 192.267 299.302 191.823 301.423C191.379 303.545 182.954 318.334 170.952 316.644C158.95 314.954 178.662 303.076 178.662 303.076L189.924 297.377Z" fill="#68E1FD"/>
<path d="M186.297 291.914C185.805 291.931 185.336 292.126 184.976 292.461C184.616 292.796 184.389 293.25 184.336 293.739C184.023 295.148 183.355 296.454 182.397 297.533C181.439 298.612 180.221 299.429 178.859 299.906C175.726 300.758 172.864 298.143 171.458 298.883C170.052 299.623 166.104 309.922 167.141 312.858C168.177 315.794 173.037 315.72 177.354 313.709C181.671 311.698 189.541 303.669 190.146 300.499C190.75 297.329 188.012 292.765 186.297 291.914Z" fill="white"/>
<path d="M236.155 308.208C237.319 310.396 237.993 312.812 238.129 315.288C237.959 317.73 237.057 320.064 235.539 321.985C232.371 326.279 227.67 329.186 222.414 330.102C221.727 330.283 220.998 330.218 220.354 329.917C219.92 329.608 219.585 329.18 219.392 328.683C218.257 326.093 218.911 323.096 219.836 320.431C220.761 317.767 221.995 315.14 222.044 312.327C222.044 307.023 214.927 296.428 223.857 294.319C231.32 292.555 234.034 303.385 236.155 308.208Z" fill="#EFE5CC"/>
<path d="M241.052 315.448C241.052 315.448 243.519 317.705 242.964 320.037C242.409 322.368 232.319 338.415 219.047 335.949C205.774 333.482 228.249 321.332 228.249 321.332L241.052 315.448Z" fill="#68E1FD"/>
<path d="M237.29 309.133C236.739 309.127 236.203 309.321 235.784 309.68C235.364 310.038 235.089 310.536 235.008 311.082C234.596 312.629 233.793 314.043 232.676 315.19C231.559 316.337 230.166 317.178 228.631 317.632C225.103 318.421 222.032 315.399 220.478 316.139C218.923 316.879 213.989 328.165 215.025 331.459C216.062 334.752 221.452 334.925 226.349 332.902C231.246 330.879 240.386 322.319 241.151 318.828C241.916 315.337 239.153 310.169 237.29 309.133Z" fill="white"/>
<path d="M209.549 179.569C209.213 179.627 208.883 179.714 208.562 179.828C200.766 182.788 191.379 195.986 186.075 202.252C179.18 210.188 173.441 219.058 169.028 228.599C160.073 248.594 159.246 273.436 171.828 291.371L181.499 289.348C182.343 289.254 183.139 288.906 183.781 288.349C184.111 287.865 184.339 287.319 184.451 286.745C184.564 286.17 184.558 285.578 184.434 285.006C183.923 278.098 184.242 271.153 185.384 264.321C186.022 259.638 187.458 255.099 189.627 250.901C192.662 245.436 197.448 241.205 202.111 237.061C216.913 223.949 230.185 210.393 237.525 191.854C230.901 188.598 216.691 178.311 209.549 179.569Z" fill="#473F47"/>
<path d="M231.949 189.634C231.63 189.761 231.328 189.927 231.049 190.127C224.153 194.814 218.097 209.863 214.396 217.165C209.55 226.496 206.037 236.461 203.961 246.768C199.927 268.292 204.898 292.641 221.316 307.208L230.259 302.978C231.055 302.689 231.747 302.17 232.245 301.485C232.452 300.935 232.546 300.349 232.521 299.762C232.495 299.174 232.351 298.598 232.097 298.068C229.988 291.469 228.679 284.64 228.199 277.728C227.727 273.027 228.065 268.279 229.198 263.691C230.864 257.684 234.54 252.455 238.104 247.323C249.391 231.14 259.185 214.846 261.997 195.11C254.806 193.482 238.585 186.797 231.949 189.634Z" fill="#473F47"/>
<path d="M191.774 142.651C191.768 142.705 191.768 142.758 191.774 142.812C191.663 144.871 190.984 146.685 191.515 148.782C192.082 151.113 194.253 153.222 196.621 152.877C198.595 152.593 199.94 150.817 201.457 149.522C203.045 148.25 204.806 147.212 206.687 146.438C209.154 145.291 211.695 144.218 214.236 143.231C215.864 142.59 218.973 142.195 219.663 140.53C220.354 138.864 220.132 136.237 220.33 134.473L223.401 106.486L194.821 129.922C193.648 132.485 192.735 135.158 192.095 137.902C191.822 139.47 191.714 141.061 191.774 142.651Z" fill="white"/>
<path d="M212.99 145.735C212.817 147.388 212.435 149.028 212.238 150.669C211.202 159.784 212.324 169.442 208.624 178.089C207.785 180.013 206.699 182.061 207.193 184.108C207.795 185.843 209.01 187.299 210.609 188.203C218.159 193.483 227.324 195.838 236.254 198.071C242.977 199.773 252.438 202.869 259.148 199.884C262.01 198.651 263.243 195.789 264.415 192.977C268.116 184.022 270.065 174.154 271.816 164.607C272.038 163.374 272.273 162.14 272.482 160.845C273.938 152.235 275.077 143.552 275.899 134.794C276.467 128.429 276.726 121.522 273.099 116.292C268.288 109.31 258.1 103.957 250.168 101.49C247.603 100.665 244.931 100.22 242.237 100.17C238.398 100.35 234.618 101.184 231.061 102.637C226.83 104.179 223.068 105.462 220.663 109.212C217.996 113.568 215.953 118.276 214.594 123.199C213.314 127.81 212.679 132.575 212.706 137.36C212.706 139.703 213.027 142.071 213.015 144.403C213.054 144.846 213.046 145.293 212.99 145.735Z" fill="white"/>
<path opacity="0.1" d="M244.568 201.487C247.134 202.561 253.499 200.797 255.559 200.661C256.792 200.587 258.026 200.094 259.259 199.946C265.427 199.094 268.054 182.196 269.127 177.743C272.014 165.84 275.788 153.604 277.293 141.516C277.86 136.841 278.268 132.068 277.219 127.491C276.171 122.915 273.518 118.499 269.263 116.39C261.862 112.764 256.866 136.927 255.25 141.861C253.227 148.029 251.192 154.196 249.181 160.363C248.293 163.126 248.01 166.198 246.492 168.726C244.186 172.562 242.237 171.835 238.376 171.193C230.272 169.787 222.698 166.346 214.717 164.422C214.389 164.299 214.039 164.244 213.689 164.261C213.339 164.278 212.997 164.366 212.682 164.52C212.252 164.874 211.959 165.367 211.855 165.914C211.385 167.472 211.128 169.086 211.091 170.712C211.044 171.178 211.112 171.648 211.288 172.081C211.566 172.524 211.953 172.889 212.41 173.142C217.804 176.71 223.728 179.404 229.963 181.123C234.897 182.504 239.572 184.823 242.903 188.943C245.9 192.643 242.002 196.541 243.631 200.55C243.716 200.761 243.842 200.953 244.004 201.114C244.165 201.276 244.357 201.402 244.568 201.487Z" fill="#020202"/>
<path d="M250.193 182.85L202.9 166.901L168.214 186.686L216.481 206.471L250.193 182.85Z" fill="#68E1FD"/>
<path d="M250.193 182.85L202.9 166.901L168.214 186.686L216.481 206.471L250.193 182.85Z" fill="url(#paint3_linear)"/>
<path d="M248.244 180.296L200.951 164.348L166.265 184.133L214.532 203.917L248.244 180.296Z" fill="#EFD42B"/>
<path d="M212.213 201.192L173.086 183.911L192.181 173.426L231.086 188.154L212.213 201.192Z" fill="url(#paint4_linear)"/>
<path d="M214.532 203.917H167.893L127.742 178.915L166.265 184.133L214.532 203.917Z" fill="#EFD42B"/>
<path d="M230.444 89.3156C230.925 91.0547 231.443 92.7939 231.999 94.5208C233.232 98.4679 235.699 102.07 239.992 103.019C240.94 103.202 241.901 103.317 242.866 103.365C243.051 103.365 243.26 103.365 243.507 103.365C243.521 103.371 243.535 103.375 243.55 103.375C243.565 103.375 243.58 103.371 243.594 103.365H243.705C244.186 103.342 244.669 103.392 245.135 103.513C245.266 103.52 245.393 103.558 245.505 103.624C246.739 104.191 246.64 106.189 246.554 107.324C246.25 108.601 246.398 109.944 246.973 111.123C246.973 111.123 246.973 111.197 247.047 111.247C247.389 111.62 247.802 111.921 248.262 112.133C248.721 112.344 249.218 112.463 249.724 112.48C251.851 112.652 253.963 112.008 255.633 110.679C256.588 109.792 257.355 108.723 257.89 107.534C258.057 107.196 258.197 106.845 258.309 106.485C258.449 105.875 258.503 105.248 258.47 104.623C258.447 103.664 258.356 102.708 258.198 101.761C257.743 99.8938 257.385 98.0041 257.125 96.0996C257.109 95.1348 257.043 94.1714 256.928 93.2133C256.77 92.6012 256.655 91.9788 256.582 91.3508C256.582 89.5376 257.508 87.7861 257.52 85.9482C257.536 84.1307 257.367 82.3163 257.014 80.5332C256.356 76.9965 254.816 73.683 252.536 70.8998C248.306 65.9659 240.806 63.499 234.91 66.3113C231.963 67.7171 229.677 70.2109 228.532 73.2681C226.559 78.461 229.026 84.246 230.444 89.3156Z" fill="#EFE5CC"/>
<path d="M236.587 178.36C235.551 178.237 234.503 178.126 233.466 178.039C232.848 177.952 232.219 177.99 231.616 178.15C231.32 178.228 231.049 178.383 230.832 178.6C230.615 178.816 230.46 179.087 230.383 179.384C230.389 179.609 230.343 179.833 230.247 180.037C230.089 180.22 229.87 180.339 229.63 180.37C225.93 181.333 222.106 182.837 219.898 185.884C219.635 186.172 219.451 186.524 219.365 186.904C219.278 187.285 219.292 187.681 219.404 188.055C219.91 189.091 221.39 188.943 222.501 188.635C222.341 188.863 222.256 189.134 222.256 189.412C222.256 189.69 222.341 189.961 222.501 190.189C222.667 190.413 222.885 190.593 223.137 190.713C223.388 190.833 223.665 190.89 223.944 190.88C224.311 190.812 224.687 190.812 225.054 190.88C225.305 190.997 225.538 191.15 225.745 191.336C226.264 191.679 226.848 191.913 227.461 192.023C228.074 192.134 228.703 192.118 229.309 191.977C230.543 191.792 231.777 191.373 233.01 191.274C234.922 191.126 236.637 191.755 238.413 190.978C240.371 190.009 242.443 189.288 244.58 188.832C245.26 188.723 245.887 188.399 246.369 187.907C246.576 187.489 246.685 187.029 246.685 186.562C246.685 186.096 246.576 185.636 246.369 185.218C246.05 183.705 245.474 182.257 244.667 180.938C243.618 179.458 241.867 179.199 240.152 178.903C238.894 178.693 237.771 178.533 236.587 178.36Z" fill="#EFE5CC"/>
<path d="M273.124 116.279C282.19 131.291 291.145 148.682 293.723 166.173C294.402 170.774 294.772 176.201 292.613 180.518C289.085 187.549 277.083 188.918 270.176 189.621C261.904 190.46 253.575 190.571 245.283 189.954C245.102 189.989 244.915 189.978 244.739 189.923C244.563 189.867 244.403 189.77 244.274 189.638C244.144 189.506 244.05 189.344 243.998 189.167C243.946 188.99 243.938 188.803 243.976 188.622L243.631 180.642C243.573 180.269 243.625 179.888 243.779 179.544C243.995 179.293 244.267 179.096 244.574 178.969C244.88 178.843 245.212 178.79 245.542 178.816C250.374 178.429 255.121 177.328 259.629 175.547C263.909 173.845 272.273 169.38 271.668 163.755C271.335 160.598 267.869 156.749 266.154 154.258C262.035 148.275 257.594 142.478 253.055 136.804C253.055 136.804 252.611 104.524 273.124 116.279Z" fill="white"/>
<path d="M231.863 82.063C231.249 81.9211 230.673 81.651 230.171 81.2704C229.669 80.8899 229.254 80.4076 228.952 79.8551C228.446 81.2736 226.053 80.8419 225.449 79.4481C224.844 78.0543 225.449 76.4754 225.991 75.0816C225.425 74.9482 224.9 74.6757 224.465 74.2888C224.031 73.9018 223.699 73.4126 223.501 72.8653C223.302 72.3181 223.243 71.73 223.329 71.1543C223.415 70.5786 223.643 70.0334 223.993 69.568C224.4 69.1116 224.968 68.7169 225.079 68.1001C225.105 67.6301 225.034 67.1597 224.869 66.7186C224.792 65.9945 224.908 65.2629 225.204 64.598C225.501 63.933 225.968 63.3582 226.559 62.9319C227.771 62.0955 229.125 61.4853 230.555 61.131C230.171 60.5067 230.029 59.7638 230.153 59.0416C230.278 58.3195 230.662 57.6677 231.234 57.2086C232.403 56.3155 233.821 55.807 235.292 55.7531C237.426 55.5187 239.782 55.6174 241.46 56.9866C242.605 56.2756 243.955 55.9673 245.296 56.1103C246.636 56.2533 247.891 56.8394 248.861 57.776C249.205 58.2537 249.687 58.6151 250.242 58.8121C250.639 58.8408 251.037 58.773 251.402 58.6147C252.957 57.9496 254.678 57.7732 256.336 58.109C257.164 58.3066 257.889 58.8076 258.366 59.5133C258.843 60.2189 259.039 61.0778 258.914 61.9204C259.526 61.994 260.102 62.2533 260.562 62.6634C261.023 63.0735 261.348 63.6149 261.492 64.2147C261.52 64.5909 261.638 64.9548 261.837 65.2755C262.195 65.6949 262.824 65.6702 263.354 65.7195C264.366 65.8077 265.307 66.2742 265.99 67.026C266.673 67.7777 267.047 68.7594 267.038 69.7749C267.028 70.7904 266.636 71.765 265.94 72.5041C265.243 73.2432 264.294 73.6923 263.28 73.7618C263.397 74.2574 263.41 74.7717 263.319 75.2726C263.227 75.7735 263.034 76.2501 262.75 76.6728C262.096 77.7212 261.22 77.7952 260.357 78.449C259.851 78.8437 260.049 78.8807 260.073 79.6824C260.098 80.4202 260.061 81.1588 259.962 81.8904C259.794 83.2995 259.441 84.6804 258.914 85.9978C258.544 86.9476 258.075 87.8603 257.742 88.8225C257.283 90.2961 256.977 91.813 256.829 93.3493L254.744 87.4533C254.721 87.3727 254.721 87.2872 254.744 87.2066C254.786 87.0972 254.865 87.0056 254.966 86.9476C255.875 86.2392 256.515 85.2417 256.78 84.1201C257.045 82.9986 256.918 81.8202 256.422 80.7802C256.283 80.4541 256.063 80.1692 255.782 79.9531C255.501 79.737 255.169 79.597 254.818 79.5468C253.98 79.5468 253.338 80.2745 252.931 81.0023C252.498 81.7775 252.17 82.6072 251.957 83.4692C251.392 82.1194 250.613 80.8698 249.65 79.7688C249.243 79.3124 248.75 78.5353 248.096 78.7697C247.442 79.004 247.134 80.1882 246.862 80.6199C245.891 80.2419 245.005 79.6713 244.26 78.9424C244.346 79.7984 244.184 80.6611 243.795 81.4284C243.406 82.1956 242.805 82.8354 242.064 83.2718C240.51 83.9996 238.252 82.9635 238.252 81.2366C238.252 82.0137 234.885 80.7062 234.638 80.5582C234.378 81.0568 233.975 81.4664 233.48 81.7345C232.986 82.0026 232.423 82.117 231.863 82.063Z" fill="#606161"/>
<path d="M248.133 103.427C247.139 103.557 246.136 103.598 245.135 103.55C245.266 103.557 245.393 103.595 245.505 103.661C246.739 104.228 246.64 106.227 246.554 107.361C246.25 108.638 246.398 109.981 246.973 111.16C247.357 111.163 247.74 111.109 248.108 111C248.485 110.867 248.833 110.662 249.132 110.396C250.251 109.475 251.069 108.241 251.482 106.852C251.895 105.463 251.884 103.983 251.451 102.6C250.383 103.011 249.269 103.289 248.133 103.427Z" fill="#E3D1A6"/>
<path d="M199.249 126.308C199.249 126.308 176.663 142.972 179.784 159.611C182.683 175.091 185.285 187.401 185.285 187.401L195.857 181.234C195.857 181.234 188.789 157.909 203.541 147.77C218.294 137.631 199.249 126.308 199.249 126.308Z" fill="white"/>
<path d="M197.732 181L198.743 186.242C198.921 186.906 198.947 187.602 198.817 188.277C198.749 188.614 198.569 188.919 198.308 189.142C198.046 189.366 197.718 189.495 197.374 189.511C196.634 189.511 196.005 188.696 195.265 188.844C195 188.923 194.75 189.044 194.525 189.202C192.946 190.066 191.034 189.202 189.368 188.425C189.103 188.276 188.794 188.219 188.493 188.265C188.135 188.363 187.913 188.721 187.605 188.943C187.296 189.129 186.939 189.216 186.58 189.194C186.221 189.172 185.877 189.042 185.594 188.82C185.035 188.355 184.609 187.751 184.36 187.068C183.696 185.609 183.408 184.008 183.522 182.409C183.637 180.81 184.15 179.265 185.014 177.916C185.961 176.746 187.204 175.851 188.615 175.326C190.025 174.801 191.551 174.665 193.032 174.931C196.239 175.437 197.152 177.953 197.732 181Z" fill="#EFE5CC"/>
<path d="M216.481 206.471H169.842L129.691 181.468L168.214 186.686L216.481 206.471Z" fill="#F6E788"/>
<path d="M214.532 203.917L216.481 206.471H169.842L167.893 203.917H214.532Z" fill="url(#paint5_linear)"/>
<path d="M127.742 178.915L129.691 181.468L169.842 206.471L167.893 203.918L127.742 178.915Z" fill="#68E1FD"/>
<path d="M127.742 178.915L129.691 181.468L169.842 206.471L167.893 203.918L127.742 178.915Z" fill="url(#paint6_linear)"/>
<path d="M165.796 185.243L133.897 180.79L167.165 201.192L203.467 201.821L165.796 185.243Z" fill="white"/>
<path d="M220.145 182.48L202.086 175.782L210.795 169.417L229.322 175.782L220.145 182.48Z" fill="url(#paint7_linear)"/>
<path d="M258.79 251.517L330.445 284.229C331.97 284.924 333.708 284.985 335.278 284.4C336.848 283.815 338.122 282.631 338.82 281.108L357.15 240.946C357.501 240.201 357.69 239.389 357.706 238.566C357.753 237.314 357.427 236.076 356.767 235.01C356.108 233.945 355.147 233.1 354.005 232.583L282.35 199.872C281.501 199.49 280.578 199.298 279.647 199.311C278.716 199.324 277.799 199.541 276.96 199.946C275.64 200.583 274.585 201.66 273.975 202.992L255.67 243.167C255.326 243.92 255.134 244.733 255.105 245.561C255.076 246.388 255.21 247.213 255.5 247.988C255.79 248.764 256.23 249.474 256.794 250.08C257.359 250.685 258.037 251.174 258.79 251.517Z" fill="#68E1FD"/>
<path d="M258.79 251.517L330.445 284.229C331.97 284.924 333.708 284.985 335.278 284.4C336.848 283.815 338.122 282.631 338.82 281.108L357.15 240.946C357.501 240.201 357.69 239.389 357.706 238.566C357.753 237.314 357.427 236.076 356.767 235.01C356.108 233.945 355.147 233.1 354.005 232.583L282.35 199.872C281.501 199.49 280.578 199.298 279.647 199.311C278.716 199.324 277.799 199.541 276.96 199.946C275.64 200.583 274.585 201.66 273.975 202.992L255.67 243.167C255.326 243.92 255.134 244.733 255.105 245.561C255.076 246.388 255.21 247.213 255.5 247.988C255.79 248.764 256.23 249.474 256.794 250.08C257.359 250.685 258.037 251.174 258.79 251.517Z" fill="url(#paint8_linear)"/>
<path d="M255.472 250.074L327.127 282.786C328.652 283.48 330.39 283.542 331.96 282.957C333.53 282.372 334.804 281.188 335.502 279.665L353.832 239.515C354.179 238.768 354.372 237.958 354.4 237.135C354.445 235.882 354.117 234.643 353.459 233.576C352.8 232.509 351.84 231.661 350.699 231.14L279.045 198.441C277.521 197.749 275.785 197.687 274.216 198.269C272.647 198.851 271.372 200.03 270.669 201.549L252.339 241.723C251.996 242.477 251.805 243.291 251.777 244.119C251.748 244.947 251.884 245.772 252.175 246.548C252.466 247.323 252.907 248.034 253.473 248.639C254.038 249.244 254.718 249.732 255.472 250.074Z" fill="#68E1FD"/>
<path d="M273.679 198.441L296.055 247.508L354.4 237.073C354.445 235.82 354.117 234.582 353.459 233.515C352.8 232.447 351.84 231.6 350.699 231.078L279.045 198.379C278.201 197.994 277.282 197.8 276.355 197.81C275.427 197.821 274.514 198.036 273.679 198.441Z" fill="url(#paint9_linear)"/>
<path d="M316.975 243.759L322.834 280.75L255.472 250.012L288.049 229.956L296.055 247.508L316.975 243.759Z" fill="url(#paint10_linear)"/>
<path d="M102.061 171.946L148.342 162.806C148.829 162.71 149.292 162.519 149.705 162.244C150.118 161.969 150.473 161.615 150.749 161.202C151.026 160.79 151.218 160.327 151.315 159.84C151.412 159.353 151.412 158.852 151.315 158.365L146.196 132.462C146.106 131.977 145.917 131.515 145.64 131.106C145.228 130.479 144.638 129.989 143.946 129.699C143.254 129.409 142.491 129.332 141.755 129.477L95.4736 138.617C94.9257 138.72 94.4081 138.946 93.9596 139.277C93.5111 139.608 93.1431 140.036 92.8833 140.529C92.4661 141.302 92.3268 142.195 92.4885 143.058L97.6199 168.961C97.7144 169.449 97.9044 169.914 98.179 170.328C98.4536 170.743 98.8073 171.099 99.2199 171.376C99.6326 171.654 100.096 171.847 100.583 171.944C101.071 172.042 101.573 172.043 102.061 171.946Z" fill="#68E1FD"/>
<path d="M92.8833 140.505L120.909 156.54L145.579 131.081C145.166 130.454 144.576 129.965 143.884 129.675C143.192 129.385 142.429 129.307 141.693 129.453L95.412 138.593C94.8752 138.705 94.3699 138.934 93.9325 139.265C93.4952 139.595 93.1368 140.019 92.8833 140.505Z" fill="url(#paint11_linear)"/>
<path d="M129.778 147.4L145.554 163.349L102.061 171.946L110.893 150.804L120.909 156.54L129.778 147.4Z" fill="url(#paint12_linear)"/>
</g>
<defs>
<linearGradient id="paint0_linear" x1="172.11" y1="187.79" x2="139.535" y2="265.594" gradientUnits="userSpaceOnUse">
<stop offset="0.01" stop-color="white"/>
<stop offset="1" stop-color="white" stop-opacity="0"/>
</linearGradient>
<linearGradient id="paint1_linear" x1="195.771" y1="210.983" x2="41.7329" y2="308.028" gradientUnits="userSpaceOnUse">
<stop offset="0.01"/>
<stop offset="0.08" stop-opacity="0.69"/>
<stop offset="0.21" stop-opacity="0.32"/>
<stop offset="1" stop-opacity="0"/>
</linearGradient>
<linearGradient id="paint2_linear" x1="-24762.9" y1="29295.4" x2="6144.93" y2="15509.1" gradientUnits="userSpaceOnUse">
<stop offset="0.01"/>
<stop offset="0.08" stop-opacity="0.69"/>
<stop offset="0.21" stop-opacity="0.32"/>
<stop offset="1" stop-opacity="0"/>
</linearGradient>
<linearGradient id="paint3_linear" x1="-17694.2" y1="5396.44" x2="-17213.5" y2="10540.2" gradientUnits="userSpaceOnUse">
<stop offset="0.01"/>
<stop offset="0.08" stop-opacity="0.69"/>
<stop offset="0.21" stop-opacity="0.32"/>
<stop offset="1" stop-opacity="0"/>
</linearGradient>
<linearGradient id="paint4_linear" x1="-11539.9" y1="3951.47" x2="-13711.7" y2="7608.41" gradientUnits="userSpaceOnUse">
<stop offset="0.01"/>
<stop offset="0.08" stop-opacity="0.69"/>
<stop offset="0.21" stop-opacity="0.32"/>
<stop offset="1" stop-opacity="0"/>
</linearGradient>
<linearGradient id="paint5_linear" x1="-9478.27" y1="674.437" x2="-9559.74" y2="-259.512" gradientUnits="userSpaceOnUse">
<stop offset="0.01"/>
<stop offset="0.08" stop-opacity="0.69"/>
<stop offset="0.21" stop-opacity="0.32"/>
<stop offset="1" stop-opacity="0"/>
</linearGradient>
<linearGradient id="paint6_linear" x1="-10542" y1="4111.67" x2="-11826" y2="6755.4" gradientUnits="userSpaceOnUse">
<stop offset="0.01"/>
<stop offset="0.08" stop-opacity="0.69"/>
<stop offset="0.21" stop-opacity="0.32"/>
<stop offset="1" stop-opacity="0"/>
</linearGradient>
<linearGradient id="paint7_linear" x1="-5373.65" y1="1946.3" x2="-5544.53" y2="2459.75" gradientUnits="userSpaceOnUse">
<stop offset="0.01"/>
<stop offset="0.08" stop-opacity="0.69"/>
<stop offset="0.21" stop-opacity="0.32"/>
<stop offset="1" stop-opacity="0"/>
</linearGradient>
<linearGradient id="paint8_linear" x1="-16647.6" y1="18309.9" x2="-5887.94" y2="26920" gradientUnits="userSpaceOnUse">
<stop offset="0.01"/>
<stop offset="0.08" stop-opacity="0.69"/>
<stop offset="0.21" stop-opacity="0.32"/>
<stop offset="1" stop-opacity="0"/>
</linearGradient>
<linearGradient id="paint9_linear" x1="-30210.5" y1="4149.95" x2="-31142.1" y2="9753.07" gradientUnits="userSpaceOnUse">
<stop offset="0.01" stop-color="white"/>
<stop offset="1" stop-color="white" stop-opacity="0"/>
</linearGradient>
<linearGradient id="paint10_linear" x1="-22709.3" y1="6271.52" x2="-31207.8" y2="17038" gradientUnits="userSpaceOnUse">
<stop offset="0.01" stop-color="#53B4CA"/>
<stop offset="0.08" stop-opacity="0.69"/>
<stop offset="0.21" stop-opacity="0.32"/>
<stop offset="1" stop-opacity="0"/>
</linearGradient>
<linearGradient id="paint11_linear" x1="28286.1" y1="-5093.27" x2="29118.8" y2="-3430.8" gradientUnits="userSpaceOnUse">
<stop offset="0.01" stop-color="white"/>
<stop offset="1" stop-color="white" stop-opacity="0"/>
</linearGradient>
<linearGradient id="paint12_linear" x1="24607.7" y1="-3790.12" x2="24916.5" y2="421.36" gradientUnits="userSpaceOnUse">
<stop offset="0.01"/>
<stop offset="0.08" stop-opacity="0.69"/>
<stop offset="0.21" stop-opacity="0.32"/>
<stop offset="1" stop-opacity="0"/>
</linearGradient>
<clipPath id="clip0">
<rect width="475" height="375" fill="white" transform="matrix(-1 0 0 1 475 0)"/>
</clipPath>
</defs>
</svg>
