<svg width="25" height="24" viewBox="0 0 25 24" fill="none" xmlns="http://www.w3.org/2000/svg">
<g clip-path="url(#clip0)">
<path d="M12.2581 0.5C5.62806 0.5 0.258057 5.78 0.258057 12.292C0.258057 17.503 3.69606 21.922 8.46306 23.48C9.06306 23.591 9.28306 23.226 9.28306 22.913C9.28306 22.633 9.27306 21.891 9.26806 20.908C5.93006 21.619 5.22606 19.326 5.22606 19.326C4.68006 17.965 3.89106 17.601 3.89106 17.601C2.80406 16.87 3.97506 16.885 3.97506 16.885C5.18006 16.967 5.81306 18.1 5.81306 18.1C6.88306 19.903 8.62206 19.382 9.30806 19.081C9.41606 18.318 9.72506 17.799 10.0681 17.504C7.40306 17.209 4.60206 16.195 4.60206 11.677C4.60206 10.39 5.06706 9.338 5.83706 8.513C5.70206 8.215 5.29706 7.016 5.94206 5.392C5.94206 5.392 6.94706 5.076 9.24206 6.601C10.2021 6.339 11.2221 6.209 12.2421 6.203C13.2621 6.209 14.2821 6.339 15.2421 6.601C17.5221 5.076 18.5271 5.392 18.5271 5.392C19.1721 7.016 18.7671 8.215 18.6471 8.513C19.4121 9.338 19.8771 10.39 19.8771 11.677C19.8771 16.207 17.0721 17.204 14.4021 17.494C14.8221 17.848 15.2121 18.571 15.2121 19.676C15.2121 21.254 15.1971 22.522 15.1971 22.905C15.1971 23.214 15.4071 23.583 16.0221 23.465C20.8231 21.917 24.2581 17.495 24.2581 12.292C24.2581 5.78 18.8851 0.5 12.2581 0.5Z" fill="white"/>
</g>
<defs>
<clipPath id="clip0">
<rect width="24" height="24" fill="white" transform="translate(0.258057)"/>
</clipPath>
</defs>
</svg>
