<svg width="23" height="23" viewBox="0 0 23 23" fill="none" xmlns="http://www.w3.org/2000/svg">
<g clip-path="url(#clip0)">
<path d="M5.366 2.97321C5.366 4.34921 4.331 5.45221 2.667 5.45221H2.636C1.034 5.45321 0 4.34821 0 2.97321C0 1.56421 1.067 0.491212 2.698 0.491212C4.331 0.490212 5.336 1.56421 5.366 2.97321ZM0.28 21.7662H5.052V7.41321H0.28V21.7662ZM16.764 7.07721C14.233 7.07721 13.1 8.46721 12.463 9.44721V9.49321H12.432C12.444 9.47921 12.455 9.46321 12.463 9.44721V7.41421H7.692C7.754 8.75921 7.692 21.7672 7.692 21.7672H12.463V13.7512C12.463 13.3192 12.492 12.8962 12.62 12.5872C12.966 11.7332 13.752 10.8402 15.066 10.8402C16.795 10.8402 17.486 12.1592 17.486 14.0872V21.7672H22.257V13.5382C22.258 9.12621 19.902 7.07721 16.764 7.07721Z" fill="white"/>
</g>
<defs>
<clipPath id="clip0">
<rect width="22.258" height="22.258" fill="white"/>
</clipPath>
</defs>
</svg>
